<svg xmlns:xlink="http://www.w3.org/1999/xlink" xmlns="http://www.w3.org/2000/svg" id="Guide" height="512" viewBox="0 0 512 512" width="512"><g><path d="m482.411 244.033-39.018-14.5.564-41.856q.043-1.7.045-3.4v-.047c0-.027 0-.054 0-.081a27.55 27.55 0 0 0 -27.402-27.631h-54.76c-16.628-34.881-56.729-69.018-103.94-69.018a112.408 112.408 0 0 0 -64.811 20.438 114.587 114.587 0 0 0 -39.573 48.58h-58.67a27.549 27.549 0 0 0 -27.407 27.629v.087.066q0 1.815.055 3.617l.631 41.792-38.536 14.324a30.3 30.3 0 0 0 -19.589 28.333v105.325a30.029 30.029 0 0 0 23.1 29.4l47.833 11.329a27.129 27.129 0 0 0 17.124 6.08h315.674a27.163 27.163 0 0 0 17.046-6.011l48.125-11.4a30.029 30.029 0 0 0 23.1-29.4v-105.323a30.3 30.3 0 0 0 -19.591-28.333zm-4.182 11.248a18.251 18.251 0 0 1 11.771 17.085v54.634h-47.92l1.141-84.735zm-397.929-14.007c21.142 44.385 66.115 75.094 118.058 75.094h41.264v7.092h-3.6a16.554 16.554 0 0 0 -16.48 16.589v15.881a31.611 31.611 0 0 0 1.962 10.987l-139.318-.441zm190.01 96.055a8.346 8.346 0 0 1 -8.336 8.336h-2.014a8.345 8.345 0 0 1 -8.336-8.336v-43.949a8.345 8.345 0 0 1 8.336-8.336h2.016a8.346 8.346 0 0 1 8.336 8.336zm-38.764 18.6v-15.88a4.541 4.541 0 0 1 4.48-4.589h3.6v1.869a20.359 20.359 0 0 0 20.336 20.336h2.016a20.36 20.36 0 0 0 20.336-20.336v-1.869h2.417a4.541 4.541 0 0 1 4.479 4.589v15.881a19.414 19.414 0 0 1 -19.259 19.522h-19.144a19.414 19.414 0 0 1 -19.259-19.522zm53.181-32.47h-2.417v-7.092h30.771c52.023 0 97.053-30.805 118.154-75.3l-1.705 126.565-130.3-.681a31.589 31.589 0 0 0 1.976-11.021v-15.881a16.553 16.553 0 0 0 -16.477-16.589zm-84.75-205.692a100.465 100.465 0 0 1 57.923-18.267c19.5 0 39.229 6.792 57.049 19.643a114.92 114.92 0 0 1 33.405 37.375h-23.3a77.743 77.743 0 0 0 -135.353 0h-22.951a102.569 102.569 0 0 1 33.227-38.751zm110.829 38.751h-106.864a65.684 65.684 0 0 1 106.864 0zm-215.96 12h96.954a5.758 5.758 0 0 0 2.713 0h222.087a15.537 15.537 0 0 1 15.4 15.627l-.044 3.22c-1.693 64.808-54.368 117-118.877 117h-30.767v-10.985a20.36 20.36 0 0 0 -20.336-20.336h-2.016a20.359 20.359 0 0 0 -20.336 20.336v10.988h-41.264c-64.428 0-117.049-52.065-118.868-116.761l-.052-3.466a15.536 15.536 0 0 1 15.406-15.623zm-61.075 86.763 34.548-12.841 1.281 84.56h-47.6v-54.634a18.251 18.251 0 0 1 11.771-17.085zm-11.771 122.41v-38.691h47.777l.48 31.817a5.93 5.93 0 0 0 .052 3.456l.341 22.594a27.746 27.746 0 0 0 .892 6.992l-35.679-8.452a18.073 18.073 0 0 1 -13.863-17.716zm76.057 34.809a15.559 15.559 0 0 1 -15.408-15.72l-.276-18.3 147.1.467a31 31 0 0 0 21.33 8.509h19.142a31 31 0 0 0 21.364-8.542l138.058.721-.232 17.24a15.537 15.537 0 0 1 -15.404 15.625zm378.08-17.089-35.891 8.5a27.534 27.534 0 0 0 .892-6.962l.287-21.359a5.963 5.963 0 0 0 .05-3.714l.443-32.876h48.082v38.687a18.073 18.073 0 0 1 -13.863 17.724z" fill="#4D565B" data-original="#000000" class="active-path" data-old_color="rgb(0,0,0)"/></g> </svg>