<svg xmlns="http://www.w3.org/2000/svg" height="512" width="512"><path d="M279.741 157.126c-74.99 0-136 61.009-136 136s61.01 136 136 136 136-61.01 136-136-61.01-136-136-136zm0 260a124 124 0 11124-124 124.14 124.14 0 01-124 124z" data-original="#000000" class="active-path" data-old_color="#000000" fill="#4D565B"/><path d="M279.741 182.289a110.838 110.838 0 10110.837 110.837 110.963 110.963 0 00-110.837-110.837zm0 209.675a98.838 98.838 0 1198.837-98.838 98.951 98.951 0 01-98.837 98.838zM131.7 183.542H56.965a8.009 8.009 0 00-8 8v28a8.009 8.009 0 008 8H131.7a8.009 8.009 0 008-8v-28a8.009 8.009 0 00-8-8zm-70.734 12h36.785v20H60.965zm66.734 20h-17.949v-20H127.7z" data-original="#000000" class="active-path" data-old_color="#000000" fill="#4D565B"/><path d="M456.965 130.35h-43.98a23.9 23.9 0 01-22.9-16.808l-2.8-8.915a35.854 35.854 0 00-34.346-25.21h-67.954a35.854 35.854 0 00-34.345 25.21l-2.8 8.915a23.9 23.9 0 01-22.9 16.808h-64.076v-10.234a22.025 22.025 0 00-22-22h-48a22.025 22.025 0 00-22 22v10.234h-31.9a36.04 36.04 0 00-36 36v260a36.041 36.041 0 0036 36h420a36.041 36.041 0 0036-36v-260a36.041 36.041 0 00-35.999-36zm-376.1-10.234a10.012 10.012 0 0110-10h48a10.011 10.011 0 0110 10v10.234h-68zm400.1 306.234a24.028 24.028 0 01-24 24h-420a24.027 24.027 0 01-24-24v-260a24.027 24.027 0 0124-24h187.978a35.855 35.855 0 0034.346-25.212l2.8-8.914a23.9 23.9 0 0122.9-16.807h67.958a23.9 23.9 0 0122.9 16.806l2.8 8.916a35.855 35.855 0 0034.345 25.211h43.98a24.027 24.027 0 0124 24z" data-original="#000000" class="active-path" data-old_color="#000000" fill="#4D565B"/><path d="M347.733 274.142l-56.307 10.665 28.5-49.724a6 6 0 00-2.344-8.258l-3.007-1.632-.13-.068a75.521 75.521 0 00-34.7-8.329 76.262 76.262 0 1075.171 63.017l-.166-.883a6 6 0 00-7.013-4.788zm-67.992 83.314a64.33 64.33 0 110-128.66 63.622 63.622 0 0126.655 5.762l-31.86 55.585a6 6 0 006.321 8.878l62.935-11.921a65.1 65.1 0 01.279 6.024 64.4 64.4 0 01-64.33 64.332zM284.215 142.494h72.01a6.5 6.5 0 006.5-6.5v-23.381a6.5 6.5 0 00-6.5-6.5h-72.01a6.5 6.5 0 00-6.5 6.5V136a6.5 6.5 0 006.5 6.494zm5.5-24.378h61v12.378h-61z" data-original="#000000" class="active-path" data-old_color="#000000" fill="#4D565B"/></svg>