<svg xmlns:xlink="http://www.w3.org/1999/xlink" xmlns="http://www.w3.org/2000/svg" id="Guide" height="512" viewBox="0 0 512 512" width="512"><g><g fill="rgb(0,0,0)"><path d="m386 10h-260a26.03 26.03 0 0 0 -26 26v120.664a26.03 26.03 0 0 0 26 26h3.418v184.536a29.906 29.906 0 0 0 30 29.743h8.429a282.169 282.169 0 0 0 15.82 62.433 8.408 8.408 0 0 0 8.28 6.957h16.266v27.295a8.4 8.4 0 0 0 8.4 8.374h78.774a8.4 8.4 0 0 0 8.4-8.374v-27.297h16.265a8.381 8.381 0 0 0 8.2-6.577 230.165 230.165 0 0 0 19.929-62.926l4.242.111h.159a29.906 29.906 0 0 0 30-29.743v-184.532h3.418a26.03 26.03 0 0 0 26-26v-120.664a26.03 26.03 0 0 0 -26-26zm-94.213 480h-71.574v-23.669h71.574zm25.758-35.669h-122.954a264.806 264.806 0 0 1 -.146-187.39h123.282a214.7 214.7 0 0 1 -.182 187.39zm53.037-87.131a17.894 17.894 0 0 1 -17.927 17.743l-2.84-.075a224.679 224.679 0 0 0 1.285-29.638 228.737 228.737 0 0 0 -22.853-94.1 8.015 8.015 0 0 0 -7.793-6.19h-128.907a7.955 7.955 0 0 0 -5.66 2.347 8.067 8.067 0 0 0 -2.2 4.179 276.362 276.362 0 0 0 -17.2 123.474h-7.073a17.894 17.894 0 0 1 -18-17.743v-184.533h229.168zm29.418-210.536a14.015 14.015 0 0 1 -14 14h-260a14.015 14.015 0 0 1 -14-14v-120.664a14.015 14.015 0 0 1 14-14h260a14.015 14.015 0 0 1 14 14z" data-original="#000000" class="active-path" data-old_color="#000000" fill="#4D565B"/><path d="m379.364 35.407h-245.164a8.009 8.009 0 0 0 -8 8v105.85a8.009 8.009 0 0 0 8 8h245.164a8.009 8.009 0 0 0 8-8v-105.85a8.009 8.009 0 0 0 -8-8zm-4 109.85h-237.164v-97.85h237.164z" data-original="#000000" class="active-path" data-old_color="#000000" fill="#4D565B"/><path d="m191.885 242.5h128.23a6 6 0 0 0 0-12h-128.23a6 6 0 0 0 0 12z" data-original="#000000" class="active-path" data-old_color="#000000" fill="#4D565B"/><path d="m191.885 213.62h128.23a6 6 0 0 0 0-12h-128.23a6 6 0 0 0 0 12z" data-original="#000000" class="active-path" data-old_color="#000000" fill="#4D565B"/><path d="m256 336.389a43.552 43.552 0 1 0 43.552 43.551 43.6 43.6 0 0 0 -43.552-43.551zm0 75.1a31.552 31.552 0 1 1 31.552-31.553 31.588 31.588 0 0 1 -31.552 31.557z" data-original="#000000" class="active-path" data-old_color="#000000" fill="#4D565B"/></g></g> </svg>