<svg xmlns:xlink="http://www.w3.org/1999/xlink" xmlns="http://www.w3.org/2000/svg" id="Guide" height="512" viewBox="0 0 512 512" width="512" class=""><g><g fill="rgb(0,0,0)"><path d="m16.528 148.36 16.237 63.4a54.865 54.865 0 0 0 67.053 39.782l.641-.166 35.229 137.551a80.769 80.769 0 0 0 37.292 49.942 77.165 77.165 0 0 0 59 8.445c42.048-10.884 67.284-54.774 56.254-97.84l-14.024-54.76c-9.393-36.672 11.977-74.016 47.636-83.245a65.322 65.322 0 0 1 49.895 7.161 68.85 68.85 0 0 1 31.77 42.586l25.413 99.229-35.142 9.1a8.038 8.038 0 0 0 -5.756 9.762l15.53 60.638a7.993 7.993 0 0 0 9.767 5.774l10.224-2.646 13.458 52.548a8.612 8.612 0 0 0 3.914 5.257 7.952 7.952 0 0 0 6.078.875l48.945-12.669a8.308 8.308 0 0 0 5.781-10.183l-13.462-52.581 7.189-1.861a8.038 8.038 0 0 0 5.756-9.762l-15.53-60.638a8.014 8.014 0 0 0 -9.767-5.775l-35.365 9.153-25.405-99.2a80.773 80.773 0 0 0 -37.292-49.937 77.241 77.241 0 0 0 -59-8.445c-42.048 10.882-67.283 54.774-56.254 97.839l14.024 54.761c9.393 36.672-11.977 74.015-47.635 83.245a65.315 65.315 0 0 1 -49.9-7.161 68.853 68.853 0 0 1 -31.77-42.586l-35.235-137.585 2.394-.62a55.4 55.4 0 0 0 39.584-67.348l-16.212-63.3a25.987 25.987 0 0 0 -31.1-18.86l-20.367-79.509a10.684 10.684 0 0 0 -4.682-6.619 7.653 7.653 0 0 0 -5.845-.875l-63.867 16.53c-4.582 1.188-6.992 6.19-5.597 11.633l20.742 80.99a26.059 26.059 0 0 0 -10.599 27.97zm472.691 330.065-41.477 10.735-12.574-49.1 41.476-10.734zm-.62-64.588-9.122 2.361-53.09 13.741-12.193 3.161-13.556-52.933 37.075-9.6 37.327-9.662zm-393.481-312.606-56.749 14.688-9.153-35.744 56.748-14.688zm17.562 8.311a14.018 14.018 0 0 1 13.538 10.533l16.212 63.3a43.384 43.384 0 0 1 -30.966 52.756l-14.652 3.792a42.564 42.564 0 0 1 -32.522-4.592 43 43 0 0 1 -19.9-26.549l-16.237-63.4a14.024 14.024 0 0 1 10.054-17.027l70.941-18.355a14.072 14.072 0 0 1 3.532-.458zm-37.4-85.763 7.7 30.083-56.741 14.688-7.7-30.084z" data-original="#000000" class="active-path" data-old_color="#000000" fill="#4D565B"/><path d="m72 208.027a6 6 0 0 0 7.348 4.244l36.862-9.871a6 6 0 0 0 -3.1-11.592l-36.858 9.873a6 6 0 0 0 -4.252 7.346z" data-original="#000000" class="active-path" data-old_color="#000000" fill="#4D565B"/><path d="m75.821 188.782a6.018 6.018 0 0 0 1.545-.2l26-6.911a6 6 0 1 0 -3.082-11.6l-26 6.91a6 6 0 0 0 1.537 11.8z" data-original="#000000" class="active-path" data-old_color="#000000" fill="#4D565B"/></g></g> </svg>