<svg xmlns:xlink="http://www.w3.org/1999/xlink" xmlns="http://www.w3.org/2000/svg" id="Guide" viewBox="0 0 512 512" width="512" height="512"><g><title class="active-path" style="">Contrast</title><path d="M498.963,250.917H446.4a189.753,189.753,0,0,0-51.17-124.742l36.815-36.816a6,6,0,1,0-8.484-8.485l-36.784,36.783A189.775,189.775,0,0,0,262,65.637V13.954a6,6,0,1,0-12,0V65.637a189.78,189.78,0,0,0-124.776,52.02L88.441,80.874a6,6,0,0,0-8.484,8.485l36.815,36.816A189.753,189.753,0,0,0,65.6,250.917H13.037a6,6,0,0,0,0,12H65.672a189.785,189.785,0,0,0,51.985,123.859l-37.7,37.7a6,6,0,1,0,8.484,8.485l37.734-37.733A189.754,189.754,0,0,0,250,446.363V495.7a6,6,0,0,0,12,0V446.363a189.754,189.754,0,0,0,123.825-51.135l37.734,37.733a6,6,0,1,0,8.484-8.485l-37.7-37.7a189.785,189.785,0,0,0,51.985-123.859h52.635a6,6,0,1,0,0-12ZM376.95,387.1,262,388.236V360.55H400.544A179.993,179.993,0,0,1,376.95,387.1Zm22.4-237.294H262V122.062H373.807A179.945,179.945,0,0,1,399.346,149.81ZM262,201.558H425.964a176.946,176.946,0,0,1,6.506,27.748H262Zm0-12V161.81H407.519a178.039,178.039,0,0,1,14.112,27.748Zm0,158.992V320.8H422.286a177.974,177.974,0,0,1-13.742,27.748Zm0-39.748V281.054H432.7a177.149,177.149,0,0,1-6.207,27.748Zm0-39.748V241.306H433.858c.4,4.847.609,9.746.609,14.694q0,6.585-.48,13.054Zm96.607-158.992H262V77.645A177.414,177.414,0,0,1,358.607,110.062ZM77.533,256c0-96.4,76.828-175.179,172.467-178.355v356.71C154.361,431.179,77.533,352.4,77.533,256ZM262,400.236l100.325-.988A177.483,177.483,0,0,1,262,434.355Z" data-original="#000000" class="active-path" fill="#4D565B"/></g> </svg>