<svg xmlns="http://www.w3.org/2000/svg" height="512" width="512"><path d="M256 10A246 246 0 0082.052 429.948a246 246 0 10347.9-347.9A244.386 244.386 0 00256 10zm165.463 411.463A234 234 0 0190.537 90.537a234 234 0 01330.926 330.926z" data-original="#000000" class="active-path" data-old_color="#000000" fill="#4D565B"/><path d="M256 38.637A217.363 217.363 0 00102.3 409.7a217.363 217.363 0 00307.4-307.4A215.941 215.941 0 00256 38.637zm191.379 142.879l-156.327 5.591h-59.87L317.753 60.13a206.366 206.366 0 01129.626 121.386zM288.847 312.893h-65.694L190.306 256l32.847-56.893h65.694L321.694 256zM305.569 56.7l-90.95 133.4a8.054 8.054 0 00-.7 1.01l-29.543 51.16-59.43-144.258A205.142 205.142 0 01305.569 56.7zm-190.134 49.73l62.773 152.37c.061.161.126.32.2.478.109.241.218.482.351.714l30.541 52.901H58.66a205.2 205.2 0 0156.775-206.464zm-52.9 218.464h214.8L162.673 438.905A206.5 206.5 0 0162.538 324.893zm111.677 119.461l121.81-121.116a7.989 7.989 0 002.063-2.346l30.068-52.079 67.957 137.18a205.025 205.025 0 01-221.9 38.361zm230.876-47.271L333.758 253.1a7.872 7.872 0 00-.516-1.1l-30.77-53.294 149.114-5.333a205.124 205.124 0 01-46.5 203.711z" data-original="#000000" class="active-path" data-old_color="#000000" fill="#4D565B"/></svg>